<?xml version="1.0" encoding="UTF-8"?>
<svg version="1.1" xmlns="http://www.w3.org/2000/svg" width="500" height="500">
<path d="M0 0 C6.27 0 12.54 0 19 0 C18.0409375 4.08375 18.0409375 4.08375 17.0625 8.25 C11.73282269 32.00150032 12.74470818 56.59310159 19 80 C12.07 80 5.14 80 -2 80 C-1.67 78.02 -1.34 76.04 -1 74 C-1.66 74.99 -2.32 75.98 -3 77 C-3.66 77 -4.32 77 -5 77 C-5 77.66 -5 78.32 -5 79 C-9.2636471 81.8424314 -12.99692595 81.74148523 -18 81 C-23.29811128 77.8603785 -26.08511462 73.73544996 -28 68 C-30.20368543 58.09593651 -30.50320686 48.98129358 -29 39 C-32.84451069 46.5918287 -36.67061087 54.16457016 -40 62 C-40.43441406 63.00289063 -40.86882812 64.00578125 -41.31640625 65.0390625 C-41.76886719 66.09867187 -42.22132813 67.15828125 -42.6875 68.25 C-43.31205078 69.71179688 -43.31205078 69.71179688 -43.94921875 71.203125 C-44.92868435 73.81017841 -45.54471487 76.25828296 -46 79 C-52.51145533 79.36857294 -52.51145533 79.36857294 -54.54296875 77.8359375 C-62.13632412 68.26790258 -65.26306164 55.94348384 -66 44 C-66.66 44 -67.32 44 -68 44 C-68.66 46.31 -69.32 48.62 -70 51 C-70.66 51 -71.32 51 -72 51 C-72.103125 51.57234375 -72.20625 52.1446875 -72.3125 52.734375 C-74.66748836 60.49513211 -82.70293837 67.29323499 -89 72 C-89.66 72 -90.32 72 -91 72 C-91 72.66 -91 73.32 -91 74 C-99.1495093 78.65686246 -106.6179123 80.38993892 -116 79 C-118.9140625 77.59375 -118.9140625 77.59375 -121 76 C-121 75.34 -121 74.68 -121 74 C-121.86625 73.62875 -121.86625 73.62875 -122.75 73.25 C-126.73651011 71.03527216 -129.28342876 68.20263994 -131 64 C-132.02676463 55.85751767 -130.61335626 49.29123674 -127 42 C-129.47627099 42.63921965 -129.47627099 42.63921965 -132 44 C-133.26981531 46.30386831 -133.26981531 46.30386831 -134 49 C-134.35320312 49.85078125 -134.70640625 50.7015625 -135.0703125 51.578125 C-139.27076471 62.21927059 -138.29156993 69.16524898 -135 80 C-140.94 80 -146.88 80 -153 80 C-152 74 -152 74 -151 70.25 C-147.8307784 57.80962269 -148.79284427 45.49727367 -151 33 C-151.19078125 31.91976562 -151.3815625 30.83953125 -151.578125 29.7265625 C-152.04191919 27.14919194 -152.51946369 24.57430164 -153 22 C-147.06 22 -141.12 22 -135 22 C-134.67 23.32 -134.34 24.64 -134 26 C-133.154375 25.175 -132.30875 24.35 -131.4375 23.5 C-128.73409443 21.22682762 -127.99948062 20.99994806 -124.25 20.625 C-121 21 -121 21 -119 22 C-118.375 25.0625 -118.375 25.0625 -118 28 C-117.34 28 -116.68 28 -116 28 C-116 27.34 -116 26.68 -116 26 C-115.34 26 -114.68 26 -114 26 C-113.7525 25.360625 -113.505 24.72125 -113.25 24.0625 C-112 22 -112 22 -109.875 21.25 C-108.946875 21.12625 -108.946875 21.12625 -108 21 C-108 20.34 -108 19.68 -108 19 C-106.29807615 18.0097347 -104.58811989 17.03326794 -102.875 16.0625 C-101.92367187 15.51722656 -100.97234375 14.97195312 -99.9921875 14.41015625 C-93.29434783 11.25360257 -85.50648198 11.01572436 -78.4375 13 C-72.33986715 16.54771366 -67.14774495 21.12721616 -65 28 C-64.58629827 31.828494 -64.77500783 35.32502349 -66 39 C-64.824375 39.185625 -64.824375 39.185625 -63.625 39.375 C-61 40 -61 40 -59 42 C-58.44188442 44.52759148 -57.97373514 47.01116362 -57.5625 49.5625 C-56.51826738 55.6124084 -55.16251325 61.23329799 -53 67 C-52.34 67 -51.68 67 -51 67 C-50.73960937 65.98679687 -50.47921875 64.97359375 -50.2109375 63.9296875 C-49.11015593 60.08178849 -47.47148204 56.68088899 -45.625 53.125 C-43.62350832 49.22941375 -41.65830364 45.34223005 -39.9375 41.3125 C-35.36912082 30.87595174 -29.19315223 21.30792473 -23.07470703 11.73144531 C-22.13396157 10.21582359 -21.26907416 8.65365266 -20.41796875 7.0859375 C-19 5 -19 5 -15.5 4 C-12 4 -12 4 -10 5.125 C-9 7 -9 7 -8.875 9.3125 C-10.3188367 12.76166545 -12.39100772 14.22008004 -15.27734375 16.5078125 C-17.44520866 18.38564559 -18.72389929 20.44779859 -20 23 C-19.01 22.505 -19.01 22.505 -18 22 C-14.26414655 20.75471552 -10.87363925 20.37717957 -7 21 C-2.96392346 23.13226685 -0.62202214 25.3399339 2 29 C1.49915858 19.31351385 0.96537258 9.65372582 0 0 Z M-89 14 C-89 14.33 -89 14.66 -89 15 C-87.35 15 -85.7 15 -84 15 C-84 14.67 -84 14.34 -84 14 C-85.65 14 -87.3 14 -89 14 Z M-106 25 C-106 25.66 -106 26.32 -106 27 C-106.66 27 -107.32 27 -108 27 C-108 27.66 -108 28.32 -108 29 C-108.88365234 29.37705078 -108.88365234 29.37705078 -109.78515625 29.76171875 C-116.96449717 33.77556544 -120.50787843 42.37661482 -123.11328125 49.77734375 C-124.35109777 54.27601612 -125.10335708 58.40695543 -124 63 C-121.74942433 66.08798674 -121.74942433 66.08798674 -119 68 C-118.67 68.33 -118.34 68.66 -118 69 C-108.70248812 69.83013499 -100.23002381 65.79189919 -93 60 C-93 59.34 -93 58.68 -93 58 C-92.34 58 -91.68 58 -91 58 C-89.187473 56.32319751 -89.187473 56.32319751 -87.375 54.1875 C-86.74335938 53.47980469 -86.11171875 52.77210938 -85.4609375 52.04296875 C-83.70916026 50.01188847 -83.70916026 50.01188847 -84 47 C-83.34 47 -82.68 47 -82 47 C-78.19641299 38.33325531 -74.8808805 30.35735851 -78 21 C-81.74096814 17.48398985 -84.86147255 17.3357238 -89.828125 17.4296875 C-95.84201583 18.51100285 -100.87277803 21.80465658 -106 25 Z M-76 20 C-75 23 -75 23 -75 23 Z M-75 23 C-74 25 -74 25 -74 25 Z M-74 25 C-74 26.65 -74 28.3 -74 30 C-73.67 30 -73.34 30 -73 30 C-73 28.35 -73 26.7 -73 25 C-73.33 25 -73.66 25 -74 25 Z M-136 28 C-135 30 -135 30 -135 30 Z M-71 31 C-70.67 31.66 -70.34 32.32 -70 33 C-69.34 32.67 -68.68 32.34 -68 32 C-68.99 31.67 -69.98 31.34 -71 31 Z M-72 34 C-72 35.32 -72 36.64 -72 38 C-71.01 38.33 -70.02 38.66 -69 39 C-69 38.01 -69 37.02 -69 36 C-69.66 36 -70.32 36 -71 36 C-71.33 35.34 -71.66 34.68 -72 34 Z M-76 35 C-75 38 -75 38 -75 38 Z M-4.3125 39.5 C-5.63701172 40.19609375 -5.63701172 40.19609375 -6.98828125 40.90625 C-7.65214844 41.2671875 -8.31601562 41.628125 -9 42 C-9 42.66 -9 43.32 -9 44 C-10.10794922 44.35964844 -10.10794922 44.35964844 -11.23828125 44.7265625 C-14.39191202 46.18071191 -15.93534925 47.75257301 -18.1875 50.375 C-18.86167969 51.14585937 -19.53585937 51.91671875 -20.23046875 52.7109375 C-23.2183842 56.57609965 -24.27267885 59.09178076 -24 64 C-21.3516222 65.29611422 -19.66720044 66.10588676 -16.7109375 65.63671875 C-9.50606829 62.70898761 -3.54686532 58.46250235 2 53 C2 52.34 2 51.68 2 51 C2.66 51 3.32 51 4 51 C7.69410263 45.44888742 7.69410263 45.44888742 8 39 C6.19564377 36.78513708 6.19564377 36.78513708 3.70703125 36.71875 C0.54383216 37.04739406 -1.51431652 38.00763548 -4.3125 39.5 Z M-74 40 C-73.01 40.495 -73.01 40.495 -72 41 C-72 41.66 -72 42.32 -72 43 C-71.34 42.67 -70.68 42.34 -70 42 C-70.33 41.34 -70.66 40.68 -71 40 C-71.99 40 -72.98 40 -74 40 Z M-74 44 C-72.515 44.99 -72.515 44.99 -71 46 C-71 45.34 -71 44.68 -71 44 C-71.99 44 -72.98 44 -74 44 Z M-76 45 C-76 45.66 -76 46.32 -76 47 C-75.34 46.67 -74.68 46.34 -74 46 C-74.66 45.67 -75.32 45.34 -76 45 Z M-74 47 C-73 49 -73 49 -73 49 Z M-78 49 C-78 49.66 -78 50.32 -78 51 C-77.34 51 -76.68 51 -76 51 C-75.67 51.66 -75.34 52.32 -75 53 C-75.33 51.68 -75.66 50.36 -76 49 C-76.66 49 -77.32 49 -78 49 Z M-128 52 C-128 55.96 -128 59.92 -128 64 C-127.67 64 -127.34 64 -127 64 C-127 60.04 -127 56.08 -127 52 C-127.33 52 -127.66 52 -128 52 Z M-80 52 C-79.67 53.32 -79.34 54.64 -79 56 C-78.34 56 -77.68 56 -77 56 C-77.66 54.68 -78.32 53.36 -79 52 C-79.33 52 -79.66 52 -80 52 Z M-83 56 C-83.33 56.66 -83.66 57.32 -84 58 C-83.67 58.66 -83.34 59.32 -83 60 C-82.01 60 -81.02 60 -80 60 C-80 59.01 -80 58.02 -80 57 C-80.99 56.67 -81.98 56.34 -83 56 Z M-87 60 C-86.34 61.32 -85.68 62.64 -85 64 C-84.67 62.68 -84.34 61.36 -84 60 C-84.99 60 -85.98 60 -87 60 Z M-89 63 C-88.67 63.99 -88.34 64.98 -88 66 C-87.34 65.67 -86.68 65.34 -86 65 C-86.99 64.34 -87.98 63.68 -89 63 Z M-93 66 C-92.67 66.99 -92.34 67.98 -92 69 C-91.34 69 -90.68 69 -90 69 C-90 68.01 -90 67.02 -90 66 C-90.99 66 -91.98 66 -93 66 Z M-95 69 C-95 69.66 -95 70.32 -95 71 C-94.34 70.67 -93.68 70.34 -93 70 C-93.66 69.67 -94.32 69.34 -95 69 Z M-121 70 C-117 71 -117 71 -117 71 Z M-111 70 C-107 71 -107 71 -107 71 Z M-98 71 C-98 71.66 -98 72.32 -98 73 C-97.34 72.67 -96.68 72.34 -96 72 C-96.66 71.67 -97.32 71.34 -98 71 Z " fill="#757575" transform="translate(343,214)"/>
<path d="M0 0 C4.8977939 2.01093301 8.87919843 4.50183815 12.8515625 8.0234375 C12.8515625 8.6834375 12.8515625 9.3434375 12.8515625 10.0234375 C13.5115625 10.0234375 14.1715625 10.0234375 14.8515625 10.0234375 C19.16984792 16.90570489 19.89237006 22.96718671 18.8515625 31.0234375 C17.8023973 34.04883197 16.56655189 36.29017316 14.8515625 39.0234375 C14.1915625 39.0234375 13.5315625 39.0234375 12.8515625 39.0234375 C12.59246094 39.62671875 12.33335937 40.23 12.06640625 40.8515625 C9.73071173 45.02727361 6.34779366 46.65478034 1.8515625 48.0234375 C-4.46371636 48.63010421 -10.82233657 48.3130352 -17.1484375 48.0234375 C-16.87075862 56.75643841 -15.56233821 63.98466752 -12.1484375 72.0234375 C-11.4884375 73.6734375 -10.8284375 75.3234375 -10.1484375 77.0234375 C-17.4084375 77.0234375 -24.6684375 77.0234375 -32.1484375 77.0234375 C-31.5296875 74.7340625 -30.9109375 72.4446875 -30.2734375 70.0859375 C-24.86258887 48.99368845 -24.0125437 26.07188995 -30.5625 5.125 C-31.1484375 3.0234375 -31.1484375 3.0234375 -31.1484375 0.0234375 C-23.6570493 -3.7222566 -7.9241945 -2.30589522 0 0 Z M3.80859375 18.80078125 C3.10089844 19.18363281 2.39320313 19.56648438 1.6640625 19.9609375 C0.94863281 20.34121094 0.23320312 20.72148437 -0.50390625 21.11328125 C-1.04660156 21.41363281 -1.58929688 21.71398437 -2.1484375 22.0234375 C-2.1484375 22.6834375 -2.1484375 23.3434375 -2.1484375 24.0234375 C-3.7984375 24.6834375 -5.4484375 25.3434375 -7.1484375 26.0234375 C-7.1484375 26.6834375 -7.1484375 27.3434375 -7.1484375 28.0234375 C-7.8084375 28.0234375 -8.4684375 28.0234375 -9.1484375 28.0234375 C-9.8084375 29.6734375 -10.4684375 31.3234375 -11.1484375 33.0234375 C-11.8084375 33.0234375 -12.4684375 33.0234375 -13.1484375 33.0234375 C-13.1484375 35.3334375 -13.1484375 37.6434375 -13.1484375 40.0234375 C-8.91902787 41.43324071 -7.06664631 39.94817165 -3.1484375 38.0234375 C-0.76815459 36.59668577 -0.76815459 36.59668577 0.8515625 35.0234375 C0.8515625 34.3634375 0.8515625 33.7034375 0.8515625 33.0234375 C2.1715625 32.3634375 3.4915625 31.7034375 4.8515625 31.0234375 C4.8515625 30.3634375 4.8515625 29.7034375 4.8515625 29.0234375 C5.5115625 29.0234375 6.1715625 29.0234375 6.8515625 29.0234375 C9.19138148 25.11027433 9.19138148 25.11027433 9.7265625 20.7109375 C8.30554017 17.97039443 6.56771421 17.75094383 3.80859375 18.80078125 Z " fill="#1A1A1A" transform="translate(170.1484375,216.9765625)"/>
<path d="M0 0 C8.92674617 -0.6132879 8.92674617 -0.6132879 12.625 1.5 C14.57696166 5.0490212 14.79190428 8.04047859 14 12 C11.83345429 15.20648765 10.15990704 15.94289034 6.5 17.25 C2.34644875 19.32677562 1.4388922 21.00106823 -0.46875 25.0625 C-1.24525289 27.19063269 -1.24525289 27.19063269 0 30 C0.66 30 1.32 30 2 30 C4.36486077 34.58191774 4.40579751 38.96056114 4 44 C3.67 44.99 3.34 45.98 3 47 C3.70769531 47.24621094 4.41539063 47.49242187 5.14453125 47.74609375 C8.36660701 49.16098612 10.87689478 50.9497531 13.6875 53.0625 C17.20307017 55.75920044 17.20307017 55.75920044 21 58 C21 58.66 21 59.32 21 60 C21.73605469 59.86980469 22.47210938 59.73960937 23.23046875 59.60546875 C26.21495446 59.18361938 28.98564825 58.88553095 32 59 C35.125 61.375 35.125 61.375 37 64 C37.33 64.33 37.66 64.66 38 65 C37.78738874 68.75613218 37.51456398 71.27579885 35.3125 74.375 C32.41121083 76.41374374 30.54505011 76.92765204 27 77 C24.125 75.6875 24.125 75.6875 22 74 C22 73.34 22 72.68 22 72 C21.34 72 20.68 72 20 72 C20 69.36 20 66.72 20 64 C19.01 64 18.02 64 17 64 C17 63.34 17 62.68 17 62 C15.02 61.505 15.02 61.505 13 61 C13 60.34 13 59.68 13 59 C11.02 58.34 9.04 57.68 7 57 C7 56.34 7 55.68 7 55 C3.62902617 53.50178941 1.79557881 53 -2 53 C-2.6290625 53.32484375 -3.258125 53.6496875 -3.90625 53.984375 C-6.55657359 55.26997972 -8.56591853 55.26612133 -11.5 55.25 C-12.4384375 55.25515625 -13.376875 55.2603125 -14.34375 55.265625 C-17.04047676 54.99595232 -18.68949293 54.3732259 -21 53 C-21 52.34 -21 51.68 -21 51 C-22.65 51 -24.3 51 -26 51 C-26 51.66 -26 52.32 -26 53 C-29 55 -29 55 -32 55 C-32.33 57.97 -32.66 60.94 -33 64 C-33.66 64 -34.32 64 -35 64 C-35 64.66 -35 65.32 -35 66 C-42.24903581 67.35151515 -42.24903581 67.35151515 -45.9375 65.625 C-48.96993312 63.23581027 -48.96993312 63.23581027 -49.2734375 60.85546875 C-49.54676318 53.67541334 -49.54676318 53.67541334 -46.875 50.375 C-43.57376254 48.7961473 -41.61817682 48.61508757 -38 49 C-37.360625 49.2475 -36.72125 49.495 -36.0625 49.75 C-32.47687566 50.18462113 -29.96548812 47.88194439 -27 46 C-26.91921359 43.87561661 -26.86090859 41.7503677 -26.8125 39.625 C-26.77769531 38.44164062 -26.74289063 37.25828125 -26.70703125 36.0390625 C-26.80371094 35.03617188 -26.90039062 34.03328125 -27 33 C-27.99 32.34 -28.98 31.68 -30 31 C-30 30.34 -30 29.68 -30 29 C-31.98 28.34 -33.96 27.68 -36 27 C-36 26.34 -36 25.68 -36 25 C-37.65614657 24.61781233 -39.32457024 24.28604898 -41 24 C-41.33 24.33 -41.66 24.66 -42 25 C-46.27424083 25.49318163 -48.33545657 25.4524551 -51.9375 23 C-54.73583809 18.92969005 -54.47828338 16.86254774 -54 12 C-53.67 11.34 -53.34 10.68 -53 10 C-52.34 10 -51.68 10 -51 10 C-51 9.34 -51 8.68 -51 8 C-46.30524633 7.07946007 -43.27192062 6.68095738 -39 9 C-37 11 -37 11 -36.8046875 12.9453125 C-36.86979167 14.96354167 -36.93489583 16.98177083 -37 19 C-36.34 19 -35.68 19 -35 19 C-35 19.66 -35 20.32 -35 21 C-34.113125 21.2475 -33.22625 21.495 -32.3125 21.75 C-29 23 -29 23 -26.375 25.1875 C-24.23146362 27.2336793 -24.23146362 27.2336793 -22 26.875 C-20.55621425 26.24334373 -19.11949714 25.59544463 -17.6875 24.9375 C-14.33109178 23.76665992 -11.53127058 23.80011676 -8 24 C-7.34 24.33 -6.68 24.66 -6 25 C-5.896875 24.484375 -5.79375 23.96875 -5.6875 23.4375 C-5 21 -5 21 -3.3125 17.5 C-1.62557603 14.22389254 -1.62557603 14.22389254 -2.875 11.9375 C-3.24625 11.298125 -3.6175 10.65875 -4 10 C-3.70247504 7.02475039 -3.33879403 4.67758805 -2 2 C-1.34 2 -0.68 2 0 2 C0 1.34 0 0.68 0 0 Z M3 5 C2.67 6.65 2.34 8.3 2 10 C5.58327753 11.00217064 5.58327753 11.00217064 9 10 C9 8.68 9 7.36 9 6 C6.03 5.505 6.03 5.505 3 5 Z M-47.6875 13.25 C-48.120625 13.8275 -48.55375 14.405 -49 15 C-48.77242269 17.16299211 -48.77242269 17.16299211 -48 19 C-45.58380177 19.25030977 -45.58380177 19.25030977 -43 19 C-42.34 18.01 -41.68 17.02 -41 16 C-42.36323743 13.9600281 -42.36323743 13.9600281 -44 12 C-46.0821538 11.80159082 -46.0821538 11.80159082 -47.6875 13.25 Z M-18 31 C-20.4662991 34.00919513 -22.03119211 36.68993125 -21.9375 40.625 C-20.44337459 44.41011771 -19.31298226 47.19762195 -15.75 49.375 C-12.14600225 50.1940904 -9.56556532 49.94184744 -6 49 C-4.48705712 47.06402968 -4.48705712 47.06402968 -4 45 C-3.34 45 -2.68 45 -2 45 C-1.133032 41.05923635 -0.79115113 38.60334117 -2.125 34.75 C-4.18415112 31.72991169 -5.67010306 30.46190598 -9 29 C-12.95109224 29 -14.64215742 29.06924052 -18 31 Z M-43 55 C-43.67958603 57.39719432 -43.67958603 57.39719432 -44 60 C-43.34 60.66 -42.68 61.32 -42 62 C-41.01 62 -40.02 62 -39 62 C-38.34 60.35 -37.68 58.7 -37 57 C-37.66 56.34 -38.32 55.68 -39 55 C-40.32 55 -41.64 55 -43 55 Z M27 64 C26.34 64.66 25.68 65.32 25 66 C25.3185177 68.10820797 25.3185177 68.10820797 26 70 C27.65 70.33 29.3 70.66 31 71 C31.66 69.68 32.32 68.36 33 67 C31.68798827 65.43750191 31.68798827 65.43750191 30 64 C29.01 64 28.02 64 27 64 Z " fill="#2F2F2F" transform="translate(82,214)"/>
<path d="M0 0 C0 0.66 0 1.32 0 2 C-0.99 2 -1.98 2 -3 2 C-2.505 3.98 -2.505 3.98 -2 6 C-3.45537568 6.83848804 -4.91440373 7.67063934 -6.375 8.5 C-7.18710938 8.9640625 -7.99921875 9.428125 -8.8359375 9.90625 C-11 11 -11 11 -13 11 C-13 11.66 -13 12.32 -13 13 C-13.66 13 -14.32 13 -15 13 C-15 13.66 -15 14.32 -15 15 C-16.64302953 16.68997323 -18.31471312 18.35216394 -20 20 C-23.89084696 24.25292893 -26.18933213 28.05613282 -28.1875 33.4375 C-28.43435547 34.06720703 -28.68121094 34.69691406 -28.93554688 35.34570312 C-30.14214909 38.47643368 -31.20818464 41.61922761 -32.11328125 44.84765625 C-33 48 -33 48 -34 50 C-34 51.32 -34 52.64 -34 54 C-34.66 54 -35.32 54 -36 54 C-38.98377235 48.96339227 -38.59710549 43.67944529 -38 38 C-36.9564013 34.50621306 -35.61789826 31.26468756 -34 28 C-36.47627099 28.63921965 -36.47627099 28.63921965 -39 30 C-40.26981531 32.30386831 -40.26981531 32.30386831 -41 35 C-41.35320312 35.85078125 -41.70640625 36.7015625 -42.0703125 37.578125 C-46.27076471 48.21927059 -45.29156993 55.16524898 -42 66 C-47.94 66 -53.88 66 -60 66 C-59 60 -59 60 -58 56.25 C-54.8307784 43.80962269 -55.79284427 31.49727367 -58 19 C-58.19078125 17.91976562 -58.3815625 16.83953125 -58.578125 15.7265625 C-59.04191919 13.14919194 -59.51946369 10.57430164 -60 8 C-54.06 8 -48.12 8 -42 8 C-41.67 9.32 -41.34 10.64 -41 12 C-40.154375 11.175 -39.30875 10.35 -38.4375 9.5 C-35.73409443 7.22682762 -34.99948062 6.99994806 -31.25 6.625 C-28 7 -28 7 -26 8 C-25.375 11.0625 -25.375 11.0625 -25 14 C-24.34 14 -23.68 14 -23 14 C-23 13.34 -23 12.68 -23 12 C-22.34 12 -21.68 12 -21 12 C-20.7525 11.360625 -20.505 10.72125 -20.25 10.0625 C-19 8 -19 8 -16.875 7.25 C-16.25625 7.1675 -15.6375 7.085 -15 7 C-15 6.34 -15 5.68 -15 5 C-9.86445624 1.87839497 -6.11560981 0 0 0 Z M-43 14 C-42 16 -42 16 -42 16 Z " fill="#2D2D2D" transform="translate(250,228)"/>
<path d="M0 0 C7.1296 6.2592 7.1296 6.2592 9 10 C9.30351789 15.04375319 9.308639 20.09260374 8 25 C7.505 23.02 7.505 23.02 7 21 C6.01 21 5.02 21 4 21 C3.505 22.485 3.505 22.485 3 24 C2.34 24 1.68 24 1 24 C1 24.66 1 25.32 1 26 C1.66 26 2.32 26 3 26 C3 26.66 3 27.32 3 28 C4.32 27.34 5.64 26.68 7 26 C6.54177532 29.46941546 6.10868317 32.67395049 5 36 C4.34 36 3.68 36 3 36 C2.896875 36.57234375 2.79375 37.1446875 2.6875 37.734375 C0.33251164 45.49513211 -7.70293837 52.29323499 -14 57 C-14.66 57 -15.32 57 -16 57 C-16 57.66 -16 58.32 -16 59 C-24.1495093 63.65686246 -31.6179123 65.38993892 -41 64 C-43.9140625 62.59375 -43.9140625 62.59375 -46 61 C-46 60.34 -46 59.68 -46 59 C-46.598125 58.731875 -47.19625 58.46375 -47.8125 58.1875 C-51.60550459 56.12844037 -51.60550459 56.12844037 -53 54 C-52.71893874 49.12827154 -51.42031742 44.63970356 -50 40 C-49.67 40 -49.34 40 -49 40 C-48.90203125 40.68707031 -48.8040625 41.37414062 -48.703125 42.08203125 C-48.47882813 43.43361328 -48.47882813 43.43361328 -48.25 44.8125 C-48.11078125 45.70582031 -47.9715625 46.59914063 -47.828125 47.51953125 C-46.80937388 50.57097917 -45.7809087 51.44551746 -43 53 C-33.87247841 54.08292629 -27.30964484 49.99195257 -20 45 C-19.34 45 -18.68 45 -18 45 C-18 44.34 -18 43.68 -18 43 C-17.34 43 -16.68 43 -16 43 C-15.7525 42.4225 -15.505 41.845 -15.25 41.25 C-13.83400344 38.70120619 -12.05276785 37.05276785 -10 35 C-9.67 34.01 -9.34 33.02 -9 32 C-8.34 32 -7.68 32 -7 32 C-6.86722656 31.42121094 -6.73445313 30.84242188 -6.59765625 30.24609375 C-6.02430856 28.0913557 -5.25981788 26.13219862 -4.4375 24.0625 C-2.39371372 18.12956701 -2.74133319 12.19842311 -3 6 C-6.59462331 3.74001405 -9.56595675 3.79131913 -13.75 3.875 C-14.92046875 3.89304688 -16.0909375 3.91109375 -17.296875 3.9296875 C-18.18890625 3.95289063 -19.0809375 3.97609375 -20 4 C-20 3.01 -20 2.02 -20 1 C-19.34 1 -18.68 1 -18 1 C-18 0.34 -18 -0.32 -18 -1 C-19.65 -0.67 -21.3 -0.34 -23 0 C-22.67 -0.66 -22.34 -1.32 -22 -2 C-14.39062426 -3.90234394 -6.87019749 -3.99720581 0 0 Z M-14 -1 C-14 -0.67 -14 -0.34 -14 0 C-12.35 0 -10.7 0 -9 0 C-9 -0.33 -9 -0.66 -9 -1 C-10.65 -1 -12.3 -1 -14 -1 Z M-1 5 C0 8 0 8 0 8 Z M0 8 C1 10 1 10 1 10 Z M1 10 C1 11.65 1 13.3 1 15 C1.33 15 1.66 15 2 15 C2 13.35 2 11.7 2 10 C1.67 10 1.34 10 1 10 Z M4 16 C4.33 16.66 4.66 17.32 5 18 C5.66 17.67 6.32 17.34 7 17 C6.01 16.67 5.02 16.34 4 16 Z M-1 20 C0 23 0 23 0 23 Z M1 29 C2.485 29.99 2.485 29.99 4 31 C4 30.34 4 29.68 4 29 C3.01 29 2.02 29 1 29 Z M-1 30 C-1 30.66 -1 31.32 -1 32 C-0.34 31.67 0.32 31.34 1 31 C0.34 30.67 -0.32 30.34 -1 30 Z M1 32 C2 34 2 34 2 34 Z M-3 34 C-3 34.66 -3 35.32 -3 36 C-2.34 36 -1.68 36 -1 36 C-0.67 36.66 -0.34 37.32 0 38 C-0.33 36.68 -0.66 35.36 -1 34 C-1.66 34 -2.32 34 -3 34 Z M-5 37 C-4.67 38.32 -4.34 39.64 -4 41 C-3.34 41 -2.68 41 -2 41 C-2.66 39.68 -3.32 38.36 -4 37 C-4.33 37 -4.66 37 -5 37 Z M-8 41 C-8.33 41.66 -8.66 42.32 -9 43 C-8.67 43.66 -8.34 44.32 -8 45 C-7.01 45 -6.02 45 -5 45 C-5 44.01 -5 43.02 -5 42 C-5.99 41.67 -6.98 41.34 -8 41 Z M-12 45 C-11.34 46.32 -10.68 47.64 -10 49 C-9.67 47.68 -9.34 46.36 -9 45 C-9.99 45 -10.98 45 -12 45 Z M-14 48 C-13.67 48.99 -13.34 49.98 -13 51 C-12.34 50.67 -11.68 50.34 -11 50 C-11.99 49.34 -12.98 48.68 -14 48 Z M-18 51 C-17.67 51.99 -17.34 52.98 -17 54 C-16.34 54 -15.68 54 -15 54 C-15 53.01 -15 52.02 -15 51 C-15.99 51 -16.98 51 -18 51 Z M-20 54 C-20 54.66 -20 55.32 -20 56 C-19.34 55.67 -18.68 55.34 -18 55 C-18.66 54.67 -19.32 54.34 -20 54 Z M-46 55 C-42 56 -42 56 -42 56 Z M-36 55 C-32 56 -32 56 -32 56 Z M-23 56 C-23 56.66 -23 57.32 -23 58 C-22.34 57.67 -21.68 57.34 -21 57 C-21.66 56.67 -22.32 56.34 -23 56 Z " fill="#434343" transform="translate(268,229)"/>
<path d="M0 0 C1.875 1.1875 1.875 1.1875 3 3 C3.125 5.3125 3.125 5.3125 2 8 C0.32195213 9.62239832 -1.44973833 11.05966764 -3.2734375 12.515625 C-5.48272454 14.41501205 -6.81927922 16.34337824 -8 19 C-7.505 19.99 -7.505 19.99 -7 21 C-7.33 21.66 -7.66 22.32 -8 23 C-8.99 23 -9.98 23 -11 23 C-11.268125 23.7425 -11.53625 24.485 -11.8125 25.25 C-13 28 -13 28 -14.43017578 29.87084961 C-16.08279694 32.11229737 -17.16913389 34.27655956 -18.3046875 36.81640625 C-18.72363281 37.74646484 -19.14257812 38.67652344 -19.57421875 39.63476562 C-20.00347656 40.60091797 -20.43273437 41.56707031 -20.875 42.5625 C-21.7265625 44.45963542 -22.578125 46.35677083 -23.4296875 48.25390625 C-23.85064697 49.19854736 -24.27160645 50.14318848 -24.70532227 51.11645508 C-26.40697189 54.90641996 -28.15509363 58.67458626 -29.90942383 62.44042969 C-31.64577842 66.51563486 -32.8594275 70.72517136 -34 75 C-40.51145533 75.36857294 -40.51145533 75.36857294 -42.54296875 73.8359375 C-50.13632412 64.26790258 -53.26306164 51.94348384 -54 40 C-54.66 40 -55.32 40 -56 40 C-56.33 39.34 -56.66 38.68 -57 38 C-57.66 38 -58.32 38 -59 38 C-59 37.34 -59 36.68 -59 36 C-59.99 35.67 -60.98 35.34 -62 35 C-61.1028125 34.8453125 -61.1028125 34.8453125 -60.1875 34.6875 C-57.53860567 33.85499035 -56.59676594 33.2810942 -55 31 C-54.26958147 27.38976901 -54.26958147 27.38976901 -54 24 C-53.67 24 -53.34 24 -53 24 C-52.875 31.625 -52.875 31.625 -54 35 C-52.824375 35.185625 -52.824375 35.185625 -51.625 35.375 C-49 36 -49 36 -47 38 C-46.44188442 40.52759148 -45.97373514 43.01116362 -45.5625 45.5625 C-44.51826738 51.6124084 -43.16251325 57.23329799 -41 63 C-40.34 63 -39.68 63 -39 63 C-38.60941406 61.48019531 -38.60941406 61.48019531 -38.2109375 59.9296875 C-37.11015593 56.08178849 -35.47148204 52.68088899 -33.625 49.125 C-31.62350832 45.22941375 -29.65830364 41.34223005 -27.9375 37.3125 C-23.36772665 26.87276673 -17.17875198 17.3232526 -11.08056641 7.73144531 C-10.12727767 6.20394334 -9.22182528 4.6468104 -8.32421875 3.0859375 C-6.13113977 -0.36864709 -3.89509714 -0.38000948 0 0 Z " fill="#54C275" transform="translate(331,218)"/>
<path d="M0 0 C0 0.66 0 1.32 0 2 C-0.99 2 -1.98 2 -3 2 C-2.505 3.98 -2.505 3.98 -2 6 C-3.45537568 6.83848804 -4.91440373 7.67063934 -6.375 8.5 C-7.18710938 8.9640625 -7.99921875 9.428125 -8.8359375 9.90625 C-11 11 -11 11 -13 11 C-13 11.66 -13 12.32 -13 13 C-13.66 13 -14.32 13 -15 13 C-15 13.66 -15 14.32 -15 15 C-16.64302953 16.68997323 -18.31471312 18.35216394 -20 20 C-23.89084696 24.25292893 -26.18933213 28.05613282 -28.1875 33.4375 C-28.43435547 34.06720703 -28.68121094 34.69691406 -28.93554688 35.34570312 C-30.14214909 38.47643368 -31.20818464 41.61922761 -32.11328125 44.84765625 C-33 48 -33 48 -34 50 C-34 51.32 -34 52.64 -34 54 C-34.66 54 -35.32 54 -36 54 C-38.98377235 48.96339227 -38.59710549 43.67944529 -38 38 C-36.9564013 34.50621306 -35.61789826 31.26468756 -34 28 C-37.87443403 29.19611277 -37.87443403 29.19611277 -40.1875 32.3125 C-40.455625 33.199375 -40.72375 34.08625 -41 35 C-41.66666667 36.66666667 -42.33333333 38.33333333 -43 40 C-43.495 38.515 -43.495 38.515 -44 37 C-44.66 36.67 -45.32 36.34 -46 36 C-46 32.92619395 -45.54908506 30.01996783 -45 27 C-44.34 26.67 -43.68 26.34 -43 26 C-43.66 25.67 -44.32 25.34 -45 25 C-44.505 20.545 -44.505 20.545 -44 16 C-43.34 16 -42.68 16 -42 16 C-41.773125 15.2575 -41.54625 14.515 -41.3125 13.75 C-39.6826871 10.33515393 -38.2433625 8.9460175 -35 7 C-29.01449275 6.49275362 -29.01449275 6.49275362 -26 8 C-25.375 11.0625 -25.375 11.0625 -25 14 C-24.34 14 -23.68 14 -23 14 C-23 13.34 -23 12.68 -23 12 C-22.34 12 -21.68 12 -21 12 C-20.7525 11.360625 -20.505 10.72125 -20.25 10.0625 C-19 8 -19 8 -16.875 7.25 C-16.25625 7.1675 -15.6375 7.085 -15 7 C-15 6.34 -15 5.68 -15 5 C-9.86445624 1.87839497 -6.11560981 0 0 0 Z " fill="#383838" transform="translate(250,228)"/>
<path d="M0 0 C2.67038258 2.29777106 4.25249185 4.10483471 5.6875 7.3125 C5.3575 7.9725 5.0275 8.6325 4.6875 9.3125 C3.6975 9.3125 2.7075 9.3125 1.6875 9.3125 C2.0175 11.2925 2.3475 13.2725 2.6875 15.3125 C-3.0625 19.3125 -3.0625 19.3125 -5.3125 19.3125 C-5.3125 19.9725 -5.3125 20.6325 -5.3125 21.3125 C-9.1806449 24.2429128 -12.57946801 24.71011411 -17.3125 25.3125 C-19.64838323 26.26834438 -19.64838323 26.26834438 -21.3125 27.3125 C-21.3125 26.3225 -21.3125 25.3325 -21.3125 24.3125 C-22.3025 24.3125 -23.2925 24.3125 -24.3125 24.3125 C-25.3286692 19.68328475 -25.15046731 15.96787393 -24.3125 11.3125 C-23.6525 11.3125 -22.9925 11.3125 -22.3125 11.3125 C-22.003125 10.52875 -21.69375 9.745 -21.375 8.9375 C-20.3125 6.3125 -20.3125 6.3125 -19.3125 4.3125 C-18.3225 4.3125 -17.3325 4.3125 -16.3125 4.3125 C-16.23 3.69375 -16.1475 3.075 -16.0625 2.4375 C-15.3125 0.3125 -15.3125 0.3125 -13.75 -0.9375 C-8.5643692 -2.53307871 -4.74919459 -2.41940102 0 0 Z " fill="#686968" transform="translate(339.3125,236.6875)"/>
<path d="M0 0 C1.9375 0.6875 1.9375 0.6875 2.9375 2.6875 C4.57892963 3.7284066 6.24462215 4.73254326 7.9375 5.6875 C7.2775 7.3375 6.6175 8.9875 5.9375 10.6875 C3.9575 10.6875 1.9775 10.6875 -0.0625 10.6875 C-0.3925 12.0075 -0.7225 13.3275 -1.0625 14.6875 C-0.11375 14.790625 0.835 14.89375 1.8125 15 C4.9375 15.6875 4.9375 15.6875 6.9375 18.6875 C6.9140625 20.94921875 6.9140625 20.94921875 6.5625 23.375 C6.39621094 24.58736328 6.39621094 24.58736328 6.2265625 25.82421875 C6.08347656 26.74654297 6.08347656 26.74654297 5.9375 27.6875 C5.2775 27.6875 4.6175 27.6875 3.9375 27.6875 C3.9375 28.3475 3.9375 29.0075 3.9375 29.6875 C0.9375 31.6875 0.9375 31.6875 -3.0625 31.6875 C-3.5575 34.1625 -3.5575 34.1625 -4.0625 36.6875 C-6.5375 37.1825 -6.5375 37.1825 -9.0625 37.6875 C-9.3925 36.3675 -9.7225 35.0475 -10.0625 33.6875 C-11.238125 33.749375 -11.238125 33.749375 -12.4375 33.8125 C-15.0625 33.6875 -15.0625 33.6875 -17.0625 31.6875 C-16.7355244 29.07169521 -16.24210932 27.04671863 -15.0625 24.6875 C-13.4125 25.0175 -11.7625 25.3475 -10.0625 25.6875 C-9.7325 24.3675 -9.4025 23.0475 -9.0625 21.6875 C-10.0525 21.171875 -11.0425 20.65625 -12.0625 20.125 C-13.0525 19.320625 -14.0425 18.51625 -15.0625 17.6875 C-15.4375 13.9375 -15.4375 13.9375 -15.0625 10.6875 C-14.4025 10.6875 -13.7425 10.6875 -13.0625 10.6875 C-12.794375 10.06875 -12.52625 9.45 -12.25 8.8125 C-11.0625 6.6875 -11.0625 6.6875 -8.0625 4.6875 C-7.0725 4.6875 -6.0825 4.6875 -5.0625 4.6875 C-4.93875 4.048125 -4.815 3.40875 -4.6875 2.75 C-4.48125 2.069375 -4.275 1.38875 -4.0625 0.6875 C-2.0625 -0.3125 -2.0625 -0.3125 0 0 Z M-3.0625 1.6875 C-3.0625 3.0075 -3.0625 4.3275 -3.0625 5.6875 C-4.7125 6.3475 -6.3625 7.0075 -8.0625 7.6875 C-8.0625 8.0175 -8.0625 8.3475 -8.0625 8.6875 C-6.4125 8.6875 -4.7625 8.6875 -3.0625 8.6875 C-3.0625 8.0275 -3.0625 7.3675 -3.0625 6.6875 C-0.7525 6.6875 1.5575 6.6875 3.9375 6.6875 C3.9375 6.3575 3.9375 6.0275 3.9375 5.6875 C1.9575 5.6875 -0.0225 5.6875 -2.0625 5.6875 C-2.3925 4.3675 -2.7225 3.0475 -3.0625 1.6875 Z M-11.0625 9.6875 C-11.7225 11.6675 -12.3825 13.6475 -13.0625 15.6875 C-11.22366119 17.97478734 -11.22366119 17.97478734 -8.4375 17.8125 C-7.65375 17.77125 -6.87 17.73 -6.0625 17.6875 C-5.7325 19.0075 -5.4025 20.3275 -5.0625 21.6875 C-4.7325 20.6975 -4.4025 19.7075 -4.0625 18.6875 C-1.0925 19.1825 -1.0925 19.1825 1.9375 19.6875 C1.6075 21.6675 1.2775 23.6475 0.9375 25.6875 C1.9275 25.0275 2.9175 24.3675 3.9375 23.6875 C4.18780977 21.10369823 4.18780977 21.10369823 3.9375 18.6875 C3.2775 18.6875 2.6175 18.6875 1.9375 18.6875 C1.9375 18.0275 1.9375 17.3675 1.9375 16.6875 C-0.0425 16.6875 -2.0225 16.6875 -4.0625 16.6875 C-4.0625 15.0375 -4.0625 13.3875 -4.0625 11.6875 C-4.3925 11.6875 -4.7225 11.6875 -5.0625 11.6875 C-5.0625 13.3375 -5.0625 14.9875 -5.0625 16.6875 C-6.3825 16.6875 -7.7025 16.6875 -9.0625 16.6875 C-9.0625 14.3775 -9.0625 12.0675 -9.0625 9.6875 C-9.7225 9.6875 -10.3825 9.6875 -11.0625 9.6875 Z M-2.0625 20.6875 C-1.7325 21.6775 -1.4025 22.6675 -1.0625 23.6875 C-1.0625 22.6975 -1.0625 21.7075 -1.0625 20.6875 C-1.3925 20.6875 -1.7225 20.6875 -2.0625 20.6875 Z M-7.0625 22.6875 C-7.0625 24.6675 -7.0625 26.6475 -7.0625 28.6875 C-9.3725 28.3575 -11.6825 28.0275 -14.0625 27.6875 C-14.0625 28.6775 -14.0625 29.6675 -14.0625 30.6875 C-11.7525 30.6875 -9.4425 30.6875 -7.0625 30.6875 C-6.7325 31.3475 -6.4025 32.0075 -6.0625 32.6875 C-6.0625 31.6975 -6.0625 30.7075 -6.0625 29.6875 C-4.4125 29.3575 -2.7625 29.0275 -1.0625 28.6875 C-1.0625 28.3575 -1.0625 28.0275 -1.0625 27.6875 C-2.7125 27.6875 -4.3625 27.6875 -6.0625 27.6875 C-6.0625 26.0375 -6.0625 24.3875 -6.0625 22.6875 C-6.3925 22.6875 -6.7225 22.6875 -7.0625 22.6875 Z M-1.0625 25.6875 C-0.7325 26.3475 -0.4025 27.0075 -0.0625 27.6875 C0.2675 27.0275 0.5975 26.3675 0.9375 25.6875 C0.2775 25.6875 -0.3825 25.6875 -1.0625 25.6875 Z " fill="#5C5C5C" transform="translate(246.0625,239.3125)"/>
<path d="M0 0 C0.33 0 0.66 0 1 0 C1.125 7.625 1.125 7.625 0 11 C0.78375 11.12375 1.5675 11.2475 2.375 11.375 C5 12 5 12 7 14 C7.55811558 16.52759148 8.02626486 19.01116362 8.4375 21.5625 C9.48173262 27.6124084 10.83748675 33.23329799 13 39 C13.66 39 14.32 39 15 39 C15.3403125 37.576875 15.3403125 37.576875 15.6875 36.125 C17.10005581 31.10372496 19.57723367 26.59585827 22 22 C23.231394 24.46278801 23.07159196 26.2795055 23 29 C22.01 29.33 21.02 29.66 20 30 C19.08131178 32.51640687 18.53849114 35.04244437 17.94140625 37.65234375 C16.7800175 40.54858707 15.77189771 40.79458557 13 42 C12.18828772 44.55519921 12.18828772 44.55519921 12 47 C16.10223585 48.01540112 16.10223585 48.01540112 20 47 C20 48.32 20 49.64 20 51 C13.48854467 51.36857294 13.48854467 51.36857294 11.45703125 49.8359375 C3.86367588 40.26790258 0.73693836 27.94348384 0 16 C-0.66 16 -1.32 16 -2 16 C-2.33 15.34 -2.66 14.68 -3 14 C-3.66 14 -4.32 14 -5 14 C-5 13.34 -5 12.68 -5 12 C-5.99 11.67 -6.98 11.34 -8 11 C-7.401875 10.896875 -6.80375 10.79375 -6.1875 10.6875 C-3.53860567 9.85499035 -2.59676594 9.2810942 -1 7 C-0.26958147 3.38976901 -0.26958147 3.38976901 0 0 Z " fill="#60C27D" transform="translate(277,242)"/>
<path d="M0 0 C1.875 1.1875 1.875 1.1875 3 3 C3.125 5.3125 3.125 5.3125 2 8 C0.32195213 9.62239832 -1.44973833 11.05966764 -3.2734375 12.515625 C-5.48272454 14.41501205 -6.81927922 16.34337824 -8 19 C-7.67 19.66 -7.34 20.32 -7 21 C-7.33 21.66 -7.66 22.32 -8 23 C-8.99 23 -9.98 23 -11 23 C-11.99 25.475 -11.99 25.475 -13 28 C-13.66 28 -14.32 28 -15 28 C-15 27.34 -15 26.68 -15 26 C-15.66 26 -16.32 26 -17 26 C-18.3125 24.0625 -18.3125 24.0625 -19 21 C-16.87081767 15.31497511 -12.99077273 10.4317411 -9.234375 5.7265625 C-7.80533885 3.90684122 -7.80533885 3.90684122 -7 1 C-4.45132831 -0.27433584 -2.82594567 -0.27570202 0 0 Z " fill="#61C07C" transform="translate(331,218)"/>
<path d="M0 0 C0 1.32 0 2.64 0 4 C-2.4375 6.125 -2.4375 6.125 -5 8 C-5.33 8.66 -5.66 9.32 -6 10 C-11.42307692 13 -11.42307692 13 -14 13 C-14 14.65 -14 16.3 -14 18 C-12.02 17.67 -10.04 17.34 -8 17 C-8 17.66 -8 18.32 -8 19 C-15.69627496 23.96533868 -22.89741406 25.33371223 -32 24 C-34.91796875 22.59375 -34.91796875 22.59375 -37 21 C-37 20.34 -37 19.68 -37 19 C-37.639375 18.7525 -38.27875 18.505 -38.9375 18.25 C-41 17 -41 17 -41.75 14.875 C-41.8325 14.25625 -41.915 13.6375 -42 13 C-41.01 13.33 -40.02 13.66 -39 14 C-39 14.66 -39 15.32 -39 16 C-27.55164669 16.52302122 -18.53326839 14.61080768 -9 8 C-8.34 7.01 -7.68 6.02 -7 5 C-6.34 5 -5.68 5 -5 5 C-5 4.34 -5 3.68 -5 3 C-2.46153846 0 -2.46153846 0 0 0 Z " fill="#7D7E7E" transform="translate(259,269)"/>
<path d="M0 0 C0.639375 0.2475 1.27875 0.495 1.9375 0.75 C2.2675 1.74 2.5975 2.73 2.9375 3.75 C2.256875 3.811875 1.57625 3.87375 0.875 3.9375 C-2.58851171 4.8954926 -4.71179804 6.49989403 -7.51171875 8.69140625 C-9.0625 9.75 -9.0625 9.75 -11.0625 9.75 C-11.3925 11.73 -11.7225 13.71 -12.0625 15.75 C-7.21781261 18.35759567 -7.21781261 18.35759567 -2.0625 17.75 C0.125 18.6875 0.125 18.6875 1.9375 19.75 C1.6075 21.73 1.2775 23.71 0.9375 25.75 C0.2775 25.75 -0.3825 25.75 -1.0625 25.75 C-1.0625 26.41 -1.0625 27.07 -1.0625 27.75 C-1.784375 27.729375 -2.50625 27.70875 -3.25 27.6875 C-6.05136343 27.66169947 -6.05136343 27.66169947 -8.6875 28.3125 C-11.0625 28.75 -11.0625 28.75 -14.0625 27.75 C-14.3925 28.74 -14.7225 29.73 -15.0625 30.75 C-16.1875 27 -16.1875 27 -15.0625 24.75 C-13.4125 25.08 -11.7625 25.41 -10.0625 25.75 C-9.7325 24.43 -9.4025 23.11 -9.0625 21.75 C-10.0525 21.234375 -11.0425 20.71875 -12.0625 20.1875 C-13.0525 19.383125 -14.0425 18.57875 -15.0625 17.75 C-15.4375 14 -15.4375 14 -15.0625 10.75 C-14.4025 10.75 -13.7425 10.75 -13.0625 10.75 C-12.794375 10.13125 -12.52625 9.5125 -12.25 8.875 C-11.0625 6.75 -11.0625 6.75 -8.0625 4.75 C-7.0725 4.75 -6.0825 4.75 -5.0625 4.75 C-4.93875 4.110625 -4.815 3.47125 -4.6875 2.8125 C-4.48125 2.131875 -4.275 1.45125 -4.0625 0.75 C-2.0625 -0.25 -2.0625 -0.25 0 0 Z M-2.0625 20.75 C-1.7325 21.74 -1.4025 22.73 -1.0625 23.75 C-1.0625 22.76 -1.0625 21.77 -1.0625 20.75 C-1.3925 20.75 -1.7225 20.75 -2.0625 20.75 Z " fill="#6E6E6E" transform="translate(246.0625,239.25)"/>
<path d="M0 0 C1.9375 2.1875 1.9375 2.1875 3 4 C2.34 4 1.68 4 1 4 C1.12568359 5.22976562 1.12568359 5.22976562 1.25390625 6.484375 C1.35574219 7.56203125 1.45757812 8.6396875 1.5625 9.75 C1.66691406 10.81734375 1.77132813 11.8846875 1.87890625 12.984375 C1.98560074 15.64141204 1.81930395 17.49960572 1 20 C0.34 20 -0.32 20 -1 20 C-0.67 21.65 -0.34 23.3 0 25 C-0.66 25 -1.32 25 -2 25 C-2.84023188 20.64667264 -3.10770995 16.55557481 -3.0625 12.125 C-3.05347656 10.97257813 -3.04445313 9.82015625 -3.03515625 8.6328125 C-3.02355469 7.76398438 -3.01195312 6.89515625 -3 6 C-6.59462331 3.74001405 -9.56595675 3.79131913 -13.75 3.875 C-14.92046875 3.89304688 -16.0909375 3.91109375 -17.296875 3.9296875 C-18.18890625 3.95289063 -19.0809375 3.97609375 -20 4 C-20 3.01 -20 2.02 -20 1 C-19.34 1 -18.68 1 -18 1 C-18 0.34 -18 -0.32 -18 -1 C-19.65 -0.67 -21.3 -0.34 -23 0 C-22.67 -0.66 -22.34 -1.32 -22 -2 C-14.27373373 -3.93156657 -6.98630005 -3.91232803 0 0 Z M-14 -1 C-14 -0.67 -14 -0.34 -14 0 C-12.35 0 -10.7 0 -9 0 C-9 -0.33 -9 -0.66 -9 -1 C-10.65 -1 -12.3 -1 -14 -1 Z M-1 5 C0 8 0 8 0 8 Z " fill="#565656" transform="translate(268,229)"/>
<path d="M0 0 C2.85026332 0.30538536 4.05165508 1.04448076 6.25 2.9375 C9.37665447 8.40914533 8.59509201 15.01840496 7 21 C6.67 19.68 6.34 18.36 6 17 C5.01 17 4.02 17 3 17 C2.67 17.99 2.34 18.98 2 20 C1.34 20 0.68 20 0 20 C0.33 20.99 0.66 21.98 1 23 C0.34 23 -0.32 23 -1 23 C-0.67 23.99 -0.34 24.98 0 26 C-2.66666667 28.66666667 -5.33333333 31.33333333 -8 34 C-7.67 33.2575 -7.34 32.515 -7 31.75 C-5.77217129 28.86116688 -5.77217129 28.86116688 -6 25 C-5.625 21.8125 -5.625 21.8125 -5 19 C-4.34 18.67 -3.68 18.34 -3 18 C-3 18.99 -3 19.98 -3 21 C-2.34 21 -1.68 21 -1 21 C-0.83079995 18.62515638 -0.66457137 16.25016522 -0.5 13.875 C-0.45230469 13.20984375 -0.40460938 12.5446875 -0.35546875 11.859375 C-0.08358538 7.89764586 0.04947806 3.97061445 0 0 Z M3 12 C3.33 12.66 3.66 13.32 4 14 C4.66 13.67 5.32 13.34 6 13 C5.01 12.67 4.02 12.34 3 12 Z " fill="#444344" transform="translate(269,233)"/>
<path d="M0 0 C0 0.66 0 1.32 0 2 C-0.99 2 -1.98 2 -3 2 C-2.67 3.32 -2.34 4.64 -2 6 C-3.45537568 6.83848804 -4.91440373 7.67063934 -6.375 8.5 C-7.18710938 8.9640625 -7.99921875 9.428125 -8.8359375 9.90625 C-11 11 -11 11 -13 11 C-13 11.66 -13 12.32 -13 13 C-13.66 13 -14.32 13 -15 13 C-15 13.66 -15 14.32 -15 15 C-17.25 16.75 -17.25 16.75 -20 18 C-22.25 17.3125 -22.25 17.3125 -24 16 C-24.33 15.34 -24.66 14.68 -25 14 C-24.34 14 -23.68 14 -23 14 C-23 13.34 -23 12.68 -23 12 C-22.34 12 -21.68 12 -21 12 C-20.7525 11.360625 -20.505 10.72125 -20.25 10.0625 C-19 8 -19 8 -16.875 7.25 C-16.25625 7.1675 -15.6375 7.085 -15 7 C-15 6.34 -15 5.68 -15 5 C-9.86445624 1.87839497 -6.11560981 0 0 0 Z " fill="#666666" transform="translate(250,228)"/>
<path d="M0 0 C0.33 0.99 0.66 1.98 1 3 C1.99 3 2.98 3 4 3 C4.33 3.66 4.66 4.32 5 5 C7.31 4.01 9.62 3.02 12 2 C12.66 2.66 13.32 3.32 14 4 C13.0925 4.94875 12.185 5.8975 11.25 6.875 C8.05746852 10.55695257 6.45505516 14.29319728 4.859375 18.86328125 C4 21 4 21 2 23 C-2.89320388 5.78640777 -2.89320388 5.78640777 0 0 Z " fill="#6D6E6D" transform="translate(314,258)"/>
<path d="M0 0 C1.32 0 2.64 0 4 0 C5.30031587 2.73750711 6.26376191 4.90283912 5.53515625 7.93359375 C5.0037603 9.2898431 4.44686139 10.63632839 3.8671875 11.97265625 C3.03221035 13.92469742 2.42832407 15.82770095 1.875 17.875 C1 21 1 21 0 23 C0 24.32 0 25.64 0 27 C-0.66 27 -1.32 27 -2 27 C-4.98452726 21.95017987 -4.58628669 16.69243473 -4 11 C-2.94289022 7.19900093 -1.59085032 3.60782127 0 0 Z " fill="#262626" transform="translate(216,255)"/>
<path d="M0 0 C2.1875 0.3125 2.1875 0.3125 4 1 C3.34 1.66 2.68 2.32 2 3 C1.33265752 6.13137625 0.79325445 9.24898942 0.3203125 12.4140625 C-0.44038082 16.80533758 -1.39364182 19.29696853 -5 22 C-7.71464802 21.91773794 -8.73165881 21.23959034 -10.75 19.4375 C-11.1625 18.963125 -11.575 18.48875 -12 18 C-11 16 -11 16 -9.06640625 14.6875 C-6.55856437 12.63950814 -5.98133762 11.03661852 -4.9375 8 C-3.77238594 4.63967103 -2.86857207 2.21057487 0 0 Z " fill="#43C367" transform="translate(300,269)"/>
<path d="M0 0 C0.33 0 0.66 0 1 0 C1.09796875 0.68707031 1.1959375 1.37414062 1.296875 2.08203125 C1.52117187 3.43361328 1.52117187 3.43361328 1.75 4.8125 C1.88921875 5.70582031 2.0284375 6.59914063 2.171875 7.51953125 C3.19062612 10.57097917 4.2190913 11.44551746 7 13 C13.71506592 13.79670274 18.05878945 11.97060527 24 9 C28.7 7 28.7 7 31 7 C31.99 6.34 32.98 5.68 34 5 C32.63016497 8.16115776 32.0109362 8.9927092 29 11 C27.68 11 26.36 11 25 11 C25 11.66 25 12.32 25 13 C23.68 13 22.36 13 21 13 C21 13.66 21 14.32 21 15 C17.86650268 16.04449911 17.01031744 15.93423645 14 15 C14 15.66 14 16.32 14 17 C8.45839855 17.10455852 4.90503739 16.4525187 0 14 C-0.66 14.66 -1.32 15.32 -2 16 C-3.26977059 12.19068824 -2.52074507 10.18381007 -1.5625 6.3125 C-1.27503906 5.13300781 -0.98757812 3.95351563 -0.69140625 2.73828125 C-0.46324219 1.83464844 -0.23507813 0.93101562 0 0 Z " fill="#737373" transform="translate(218,269)"/>
<path d="M0 0 C0 1.32 0 2.64 0 4 C-2.4375 6.125 -2.4375 6.125 -5 8 C-5.33 8.66 -5.66 9.32 -6 10 C-11.42307692 13 -11.42307692 13 -14 13 C-14 13.66 -14 14.32 -14 15 C-14.804375 15.12375 -15.60875 15.2475 -16.4375 15.375 C-17.283125 15.58125 -18.12875 15.7875 -19 16 C-19.33 16.66 -19.66 17.32 -20 18 C-20.66 18.66 -21.32 19.32 -22 20 C-22.66 19.67 -23.32 19.34 -24 19 C-24.33 19.66 -24.66 20.32 -25 21 C-25.33 20.01 -25.66 19.02 -26 18 C-27.98 18 -29.96 18 -32 18 C-32.33 18.99 -32.66 19.98 -33 21 C-36.63311582 19.78896139 -39.27773234 18.72226766 -42 16 C-41.67 15.01 -41.34 14.02 -41 13 C-40.34 13.33 -39.68 13.66 -39 14 C-39 14.66 -39 15.32 -39 16 C-27.55164669 16.52302122 -18.53326839 14.61080768 -9 8 C-8.34 7.01 -7.68 6.02 -7 5 C-6.34 5 -5.68 5 -5 5 C-5 4.34 -5 3.68 -5 3 C-2.46153846 0 -2.46153846 0 0 0 Z " fill="#151616" transform="translate(259,269)"/>
<path d="M0 0 C0.33 1.32 0.66 2.64 1 4 C0.34 4 -0.32 4 -1 4 C-0.896875 5.093125 -0.79375 6.18625 -0.6875 7.3125 C-0.66092505 12.29973179 -2.58943482 16.02493949 -4.75390625 20.43359375 C-6.10747128 23.22134368 -7.11727256 26.03082589 -8 29 C-8.33 29 -8.66 29 -9 29 C-8.88648483 27.18674449 -8.75887039 25.37436643 -8.625 23.5625 C-8.55539062 22.55316406 -8.48578125 21.54382813 -8.4140625 20.50390625 C-8.20910156 19.26447266 -8.20910156 19.26447266 -8 18 C-7.34 17.67 -6.68 17.34 -6 17 C-7.32 16.67 -8.64 16.34 -10 16 C-9.67 14.02 -9.34 12.04 -9 10 C-8.01 9.67 -7.02 9.34 -6 9 C-6 8.34 -6 7.68 -6 7 C-5.34 7 -4.68 7 -4 7 C-4 5.35 -4 3.7 -4 2 C-2.68 1.34 -1.36 0.68 0 0 Z " fill="#48C069" transform="translate(309,253)"/>
<path d="M0 0 C0.33 0 0.66 0 1 0 C1.125 7.625 1.125 7.625 0 11 C0.804375 11.12375 1.60875 11.2475 2.4375 11.375 C3.283125 11.58125 4.12875 11.7875 5 12 C5.33 12.66 5.66 13.32 6 14 C4.68 14 3.36 14 2 14 C2.11362262 15.4800841 2.24122908 16.95910074 2.375 18.4375 C2.44460938 19.26121094 2.51421875 20.08492188 2.5859375 20.93359375 C2.72257812 21.61550781 2.85921875 22.29742187 3 23 C3.66 23.33 4.32 23.66 5 24 C5.90949326 28.29942266 6.15926382 31.74936599 5 36 C1.50096099 29.50178469 0.54549127 23.26364697 0 16 C-0.66 16 -1.32 16 -2 16 C-2.33 15.34 -2.66 14.68 -3 14 C-3.66 14 -4.32 14 -5 14 C-5 13.34 -5 12.68 -5 12 C-5.99 11.67 -6.98 11.34 -8 11 C-7.401875 10.896875 -6.80375 10.79375 -6.1875 10.6875 C-3.53860567 9.85499035 -2.59676594 9.2810942 -1 7 C-0.26958147 3.38976901 -0.26958147 3.38976901 0 0 Z " fill="#8BCB9F" transform="translate(277,242)"/>
<path d="M0 0 C0.33 0.66 0.66 1.32 1 2 C1.99 2.33 2.98 2.66 4 3 C3.01 3.495 3.01 3.495 2 4 C1.9175 4.7425 1.835 5.485 1.75 6.25 C0.63300102 10.34566293 -1.57723118 11.55516513 -5 14 C-5.66 14 -6.32 14 -7 14 C-7.33 14.66 -7.66 15.32 -8 16 C-8 15.34 -8 14.68 -8 14 C-8.61875 14.20625 -9.2375 14.4125 -9.875 14.625 C-10.57625 14.74875 -11.2775 14.8725 -12 15 C-12.66 14.34 -13.32 13.68 -14 13 C-12.85900474 9.57701423 -11.99914379 8.85241234 -9 7 C-8.01 7 -7.02 7 -6 7 C-5.34 5.68 -4.68 4.36 -4 3 C-3.01 3.66 -2.02 4.32 -1 5 C-0.67 4.01 -0.34 3.02 0 2 C-0.66 1.67 -1.32 1.34 -2 1 C-1.34 0.67 -0.68 0.34 0 0 Z M-5 5 C-4.67 5.99 -4.34 6.98 -4 8 C-3.34 7.67 -2.68 7.34 -2 7 C-2.99 6.34 -3.98 5.68 -5 5 Z M-9 8 C-8.67 8.99 -8.34 9.98 -8 11 C-7.34 11 -6.68 11 -6 11 C-6 10.01 -6 9.02 -6 8 C-6.99 8 -7.98 8 -9 8 Z M-11 11 C-11 11.66 -11 12.32 -11 13 C-10.34 12.67 -9.68 12.34 -9 12 C-9.66 11.67 -10.32 11.34 -11 11 Z " fill="#6A6A6A" transform="translate(259,272)"/>
<path d="M0 0 C1.65 0 3.3 0 5 0 C5.07347656 1.34191406 5.07347656 1.34191406 5.1484375 2.7109375 C5.59688346 9.96339121 6.32113591 16.92595133 8 24 C7.67 23.34 7.34 22.68 7 22 C5.68 22 4.36 22 3 22 C3.061875 20.96875 3.12375 19.9375 3.1875 18.875 C3.27296917 15.03342414 3.27296917 15.03342414 1.5 12.125 C-0.48511576 7.98934216 -0.2703143 4.50523836 0 0 Z " fill="#44C267" transform="translate(279,256)"/>
<path d="M0 0 C0.66 1.65 1.32 3.3 2 5 C-1.18824568 6.59412284 -4.62896662 6.10174735 -8.125 6.0625 C-8.87910156 6.05798828 -9.63320312 6.05347656 -10.41015625 6.04882812 C-12.27347127 6.03703499 -14.13674555 6.01909942 -16 6 C-16 5.01 -16 4.02 -16 3 C-15.34 3 -14.68 3 -14 3 C-13.67 2.34 -13.34 1.68 -13 1 C-8.31281509 -1.12039317 -4.99640327 -0.99928065 0 0 Z " fill="#090909" transform="translate(168,259)"/>
<path d="M0 0 C0.66 0 1.32 0 2 0 C1.814375 0.61875 1.62875 1.2375 1.4375 1.875 C0.76313824 4.04160178 0.76313824 4.04160178 2 6 C1.34 6 0.68 6 0 6 C0 9.3 0 12.6 0 16 C-0.66 16 -1.32 16 -2 16 C-1.67 16.99 -1.34 17.98 -1 19 C-1.66 19 -2.32 19 -3 19 C-2.67 19.99 -2.34 20.98 -2 22 C-4.66666667 24.66666667 -7.33333333 27.33333333 -10 30 C-9.67 29.2575 -9.34 28.515 -9 27.75 C-7.77217129 24.86116688 -7.77217129 24.86116688 -8 21 C-7.625 17.8125 -7.625 17.8125 -7 15 C-6.34 14.67 -5.68 14.34 -5 14 C-5 14.99 -5 15.98 -5 17 C-4.34 17 -3.68 17 -3 17 C-2.90912109 16.14728516 -2.90912109 16.14728516 -2.81640625 15.27734375 C-1.29962547 1.29962547 -1.29962547 1.29962547 0 0 Z " fill="#232323" transform="translate(271,237)"/>
<path d="M0 0 C0.33 0.66 0.66 1.32 1 2 C2.32 1.34 3.64 0.68 5 0 C4.54177532 3.46941546 4.10868317 6.67395049 3 10 C2.34 10 1.68 10 1 10 C0.87625 10.61875 0.7525 11.2375 0.625 11.875 C0 14 0 14 -2 16 C-3.65 14.02 -5.3 12.04 -7 10 C-4.34345343 6.26115668 -2.41889613 4.35021826 2 3 C0.68 3 -0.64 3 -2 3 C-2 2.34 -2 1.68 -2 1 C-1.34 0.67 -0.68 0.34 0 0 Z M-1 6 C0 8 0 8 0 8 Z M-5 8 C-5 8.66 -5 9.32 -5 10 C-4.34 10 -3.68 10 -3 10 C-2.67 10.66 -2.34 11.32 -2 12 C-2.33 10.68 -2.66 9.36 -3 8 C-3.66 8 -4.32 8 -5 8 Z " fill="#737373" transform="translate(270,255)"/>
<path d="M0 0 C0.66 0.33 1.32 0.66 2 1 C1.71125 1.54269531 1.4225 2.08539063 1.125 2.64453125 C0.75375 3.35996094 0.3825 4.07539063 0 4.8125 C-0.37125 5.52019531 -0.7425 6.22789062 -1.125 6.95703125 C-2.19685358 9.08920729 -2.19685358 9.08920729 -2 12 C-1.34 12.33 -0.68 12.66 0 13 C-0.33 13.66 -0.66 14.32 -1 15 C-0.34 15.33 0.32 15.66 1 16 C1.66 16.99 2.32 17.98 3 19 C1.35 19.99 -0.3 20.98 -2 22 C-2 21.01 -2 20.02 -2 19 C-2.99 19 -3.98 19 -5 19 C-6.0161692 14.37078475 -5.83796731 10.65537393 -5 6 C-4.34 6 -3.68 6 -3 6 C-2.690625 5.195625 -2.38125 4.39125 -2.0625 3.5625 C-1 1 -1 1 0 0 Z " fill="#5C5B5A" transform="translate(320,242)"/>
<path d="M0 0 C0.61875 0.268125 1.2375 0.53625 1.875 0.8125 C2.205 1.8025 2.535 2.7925 2.875 3.8125 C2.215 3.8125 1.555 3.8125 0.875 3.8125 C0.545 4.8025 0.215 5.7925 -0.125 6.8125 C-1.115 6.8125 -2.105 6.8125 -3.125 6.8125 C-3.3725 7.59625 -3.62 8.38 -3.875 9.1875 C-5.27889099 12.13567108 -6.13175737 12.7149777 -9.125 13.8125 C-9.125 12.1625 -9.125 10.5125 -9.125 8.8125 C-8.465 8.8125 -7.805 8.8125 -7.125 8.8125 C-6.856875 7.69875 -6.58875 6.585 -6.3125 5.4375 C-5.09725611 1.72780813 -4.26259933 -0.37611171 0 0 Z " fill="#41C365" transform="translate(328.125,221.1875)"/>
<path d="M0 0 C1.875 1.1875 1.875 1.1875 3 3 C3.1875 5.3125 3.1875 5.3125 2 8 C-0.51230519 10.23785168 -3.19807984 12.14269074 -6 14 C-6 12.68 -6 11.36 -6 10 C-5.01 9.67 -4.02 9.34 -3 9 C-2.67 8.34 -2.34 7.68 -2 7 C-1.34 7 -0.68 7 0 7 C-0.66 6.01 -1.32 5.02 -2 4 C-3.98 4.33 -5.96 4.66 -8 5 C-7.625 3.0625 -7.625 3.0625 -7 1 C-4.45132831 -0.27433584 -2.82594567 -0.27570202 0 0 Z " fill="#7CCA96" transform="translate(331,218)"/>
<path d="M0 0 C2.16874252 0.50603992 3.99967627 0.99983813 6 2 C6.33 1.34 6.66 0.68 7 0 C8.98 0 10.96 0 13 0 C13 0.99 13 1.98 13 3 C14.65 3.33 16.3 3.66 18 4 C15.6058839 6.3941161 14.96213689 6.29598923 11.6875 6.3125 C7.70638901 6.22902509 5.13424107 5.62871832 2 3 C2 2.34 2 1.68 2 1 C1.34 0.67 0.68 0.34 0 0 Z " fill="#5D5E5E" transform="translate(220,287)"/>
<path d="M0 0 C1.98 0.66 3.96 1.32 6 2 C5.67 3.98 5.34 5.96 5 8 C4.34 8 3.68 8 3 8 C3 8.66 3 9.32 3 10 C1.35 10 -0.3 10 -2 10 C-1.85950482 8.52031676 -1.71245174 7.04125484 -1.5625 5.5625 C-1.48128906 4.73878906 -1.40007812 3.91507812 -1.31640625 3.06640625 C-1 1 -1 1 0 0 Z M2 3 C2.33 3.99 2.66 4.98 3 6 C3 5.01 3 4.02 3 3 C2.67 3 2.34 3 2 3 Z " fill="#444445" transform="translate(242,257)"/>
<path d="M0 0 C0.33 0 0.66 0 1 0 C1.09796875 0.67546875 1.1959375 1.3509375 1.296875 2.046875 C2.37079086 8.95967405 2.37079086 8.95967405 7 14 C5.35 14.66 3.7 15.32 2 16 C1.67 15.34 1.34 14.68 1 14 C0.01 14.66 -0.98 15.32 -2 16 C-3.26977059 12.19068824 -2.52074507 10.18381007 -1.5625 6.3125 C-1.27503906 5.13300781 -0.98757812 3.95351563 -0.69140625 2.73828125 C-0.46324219 1.83464844 -0.23507813 0.93101562 0 0 Z " fill="#818181" transform="translate(218,269)"/>
<path d="M0 0 C0.99 0 1.98 0 3 0 C3.33 1.98 3.66 3.96 4 6 C3.67 6 3.34 6 3 6 C2.67 7.65 2.34 9.3 2 11 C-0.31 10.67 -2.62 10.34 -5 10 C-5.33 10.99 -5.66 11.98 -6 13 C-7.125 9.25 -7.125 9.25 -6 7 C-4.35 7.33 -2.7 7.66 -1 8 C-0.3185177 6.10820797 -0.3185177 6.10820797 0 4 C-0.66 3.34 -1.32 2.68 -2 2 C-1.34 1.34 -0.68 0.68 0 0 Z " fill="#6F6F6F" transform="translate(237,257)"/>
<path d="M0 0 C0.33 1.32 0.66 2.64 1 4 C1.61875 3.79375 2.2375 3.5875 2.875 3.375 C3.926875 3.189375 3.926875 3.189375 5 3 C5.66 3.66 6.32 4.32 7 5 C6.63318342 7.93453261 6.13562754 8.86437246 4 11 C1.375 10.625 1.375 10.625 -1 10 C-0.67 6.7 -0.34 3.4 0 0 Z " fill="#2E2E2E" transform="translate(223,240)"/>
<path d="M0 0 C0.144375 0.598125 0.28875 1.19625 0.4375 1.8125 C0.8872439 3.56150404 1.42892341 5.28677023 2 7 C1.34 7.66 0.68 8.32 0 9 C-0.99 9 -1.98 9 -3 9 C-3 10.65 -3 12.3 -3 14 C-3.66 14 -4.32 14 -5 14 C-5 14.66 -5 15.32 -5 16 C-5.99 16.33 -6.98 16.66 -8 17 C-6.43889165 11.60708025 -4.0683009 4.0683009 0 0 Z " fill="#77CC90" transform="translate(308,246)"/>
<path d="M0 0 C1.32 0.33 2.64 0.66 4 1 C3.01 1 2.02 1 1 1 C0.67 2.32 0.34 3.64 0 5 C-0.66 5 -1.32 5 -2 5 C-2 6.65 -2 8.3 -2 10 C-3.32 10 -4.64 10 -6 10 C-6.625 7.125 -6.625 7.125 -7 4 C-5 2 -5 2 -2.375 1.875 C-1.59125 1.91625 -0.8075 1.9575 0 2 C0 1.34 0 0.68 0 0 Z " fill="#6E6E6E" transform="translate(243,246)"/>
<path d="M0 0 C2 3 2 3 3 8 C-1.62 8 -6.24 8 -11 8 C-11 7.67 -11 7.34 -11 7 C-7.535 6.505 -7.535 6.505 -4 6 C-4 5.34 -4 4.68 -4 4 C-2.68 3.67 -1.36 3.34 0 3 C0 2.01 0 1.02 0 0 Z " fill="#5C5C5C" transform="translate(205,286)"/>
<path d="M0 0 C2.875 0.1875 2.875 0.1875 6 1 C7.375 3.5625 7.375 3.5625 8 6 C4.78548731 7.60725635 1.56387464 7.05748185 -2 7 C-0.68 5.02 0.64 3.04 2 1 C1.34 0.67 0.68 0.34 0 0 Z " fill="#0F0F0F" transform="translate(162,258)"/>
<path d="M0 0 C0 1.32 0 2.64 0 4 C-2.4375 6.125 -2.4375 6.125 -5 8 C-5.33 8.66 -5.66 9.32 -6 10 C-7.875 11.1875 -7.875 11.1875 -10 12 C-10.99 11.67 -11.98 11.34 -13 11 C-12.195625 10.38125 -11.39125 9.7625 -10.5625 9.125 C-7.96125481 7.25835959 -7.96125481 7.25835959 -7 5 C-6.34 5 -5.68 5 -5 5 C-5 4.34 -5 3.68 -5 3 C-2.46153846 0 -2.46153846 0 0 0 Z " fill="#111111" transform="translate(259,269)"/>
<path d="M0 0 C0.66 0.66 1.32 1.32 2 2 C1.01 2.495 1.01 2.495 0 3 C-0.65213292 5.02463255 -0.65213292 5.02463255 -1 7 C-1.66 7 -2.32 7 -3 7 C-3 7.66 -3 8.32 -3 9 C-5.90548882 11.04169485 -7.40142046 12 -11 12 C-10.34 11.01 -9.68 10.02 -9 9 C-8.34 9 -7.68 9 -7 9 C-7 8.34 -7 7.68 -7 7 C-6.34 7 -5.68 7 -5 7 C-4.731875 6.401875 -4.46375 5.80375 -4.1875 5.1875 C-3.01506533 3.02775192 -1.80630718 1.64209744 0 0 Z " fill="#5C5C5C" transform="translate(257,265)"/>
<path d="M0 0 C0.0625 2.25 0.0625 2.25 -1 5 C-3.86674844 6.69300427 -6.87413371 7.86963623 -10 9 C-10 8.01 -10 7.02 -10 6 C-9.34 6 -8.68 6 -8 6 C-8 5.34 -8 4.68 -8 4 C-3.64705882 0 -3.64705882 0 0 0 Z " fill="#363638" transform="translate(251,264)"/>
<path d="M0 0 C2.02045442 0.60183749 4.02111039 1.27306096 6 2 C7.26026798 4.52053595 6.91874445 5.8542098 6.5625 8.625 C6.46066406 9.44226563 6.35882813 10.25953125 6.25390625 11.1015625 C6.17011719 11.72804688 6.08632812 12.35453125 6 13 C5.67 12.01 5.34 11.02 5 10 C4.34 9.67 3.68 9.34 3 9 C3.33 7.35 3.66 5.7 4 4 C3.34 4 2.68 4 2 4 C2 3.34 2 2.68 2 2 C1.01 1.67 0.02 1.34 -1 1 C-0.67 0.67 -0.34 0.34 0 0 Z " fill="#696969" transform="translate(246,254)"/>
<path d="M0 0 C1.65 0 3.3 0 5 0 C5 2.31 5 4.62 5 7 C4.67 6.01 4.34 5.02 4 4 C3.34 4 2.68 4 2 4 C2 6.64 2 9.28 2 12 C-0.13586678 8.79619983 -0.23132175 7.98060033 -0.125 4.3125 C-0.10695313 3.50425781 -0.08890625 2.69601562 -0.0703125 1.86328125 C-0.04710937 1.24839844 -0.02390625 0.63351562 0 0 Z " fill="#54C072" transform="translate(279,256)"/>
<path d="M0 0 C0.1875 2.375 0.1875 2.375 0 5 C-0.99 5.66 -1.98 6.32 -3 7 C-3.33 5.68 -3.66 4.36 -4 3 C-5.65 3 -7.3 3 -9 3 C-8 1 -8 1 -5.625 -0.1875 C-3 -1 -3 -1 0 0 Z " fill="#272727" transform="translate(224,252)"/>
<path d="M0 0 C0.33 0 0.66 0 1 0 C1 4.29 1 8.58 1 13 C-0.98 13.33 -2.96 13.66 -5 14 C-5 13.34 -5 12.68 -5 12 C-5.99 11.67 -6.98 11.34 -8 11 C-7.401875 10.896875 -6.80375 10.79375 -6.1875 10.6875 C-3.53860567 9.85499035 -2.59676594 9.2810942 -1 7 C-0.26958147 3.38976901 -0.26958147 3.38976901 0 0 Z " fill="#8E9290" transform="translate(277,242)"/>
<path d="M0 0 C-0.33 1.32 -0.66 2.64 -1 4 C-1.99 3.67 -2.98 3.34 -4 3 C-4 3.99 -4 4.98 -4 6 C-5.8125 6.625 -5.8125 6.625 -8 7 C-8.99 6.34 -9.98 5.68 -11 5 C-9.68 4.67 -8.36 4.34 -7 4 C-7 3.34 -7 2.68 -7 2 C-4 0 -4 0 0 0 Z " fill="#4D4D4D" transform="translate(242,231)"/>
<path d="M0 0 C0.33 0.99 0.66 1.98 1 3 C1.99 3.33 2.98 3.66 4 4 C3.835 4.61875 3.67 5.2375 3.5 5.875 C2.92365356 7.96063386 2.92365356 7.96063386 3 10 C1.68 10.33 0.36 10.66 -1 11 C-1.0270043 9.54176788 -1.04639787 8.08339325 -1.0625 6.625 C-1.07410156 5.81289063 -1.08570313 5.00078125 -1.09765625 4.1640625 C-1 2 -1 2 0 0 Z " fill="#848786" transform="translate(314,258)"/>
<path d="M0 0 C0.74926071 3.66305234 1.2380014 6.42355152 0 10 C-0.66 10 -1.32 10 -2 10 C-1.67 11.65 -1.34 13.3 -1 15 C-1.66 15 -2.32 15 -3 15 C-4.13112344 9.97278473 -3.93493027 6.01462597 -3 1 C-1 0 -1 0 0 0 Z " fill="#ABABAB" transform="translate(269,239)"/>
<path d="M0 0 C1.32 0 2.64 0 4 0 C5.57312496 3.67062491 6.14440048 5.44302674 5.125 9.375 C4.75375 10.24125 4.3825 11.1075 4 12 C3.33333333 10.66666667 2.66666667 9.33333333 2 8 C1.62875 7.34 1.2575 6.68 0.875 6 C0 4 0 4 0 0 Z " fill="#5A5A5A" transform="translate(216,255)"/>
<path d="M0 0 C0.99 0 1.98 0 3 0 C2.896875 0.7425 2.79375 1.485 2.6875 2.25 C2.7254586 5.25072867 2.7254586 5.25072867 5.5 7.3125 C6.325 7.869375 7.15 8.42625 8 9 C5.125 9.125 5.125 9.125 2 9 C0 7 0 7 -0.125 3.375 C-0.08375 2.26125 -0.0425 1.1475 0 0 Z " fill="#5B5B5B" transform="translate(231,250)"/>
<path d="M0 0 C-1.65 0.33 -3.3 0.66 -5 1 C-5 1.66 -5 2.32 -5 3 C-7.31 3 -9.62 3 -12 3 C-12.33 2.01 -12.66 1.02 -13 0 C-11.58456585 -0.19658808 -10.16755969 -0.38187546 -8.75 -0.5625 C-7.96109375 -0.66691406 -7.1721875 -0.77132813 -6.359375 -0.87890625 C-3.99467126 -1.00027349 -2.2488963 -0.69633257 0 0 Z " fill="#7D7E7E" transform="translate(237,283)"/>
<path d="M0 0 C0.99 0.33 1.98 0.66 3 1 C3.36923077 6.53846154 3.36923077 6.53846154 1.5 8.875 C0.7575 9.431875 0.7575 9.431875 0 10 C-1.49106457 7.01787087 -1.11941467 4.28390342 -1 1 C-0.67 0.67 -0.34 0.34 0 0 Z " fill="#595959" transform="translate(316,271)"/>
<path d="M0 0 C1.231394 2.46278801 1.07159196 4.2795055 1 7 C0.01 7.33 -0.98 7.66 -2 8 C-3.22520264 11.00847418 -3.22520264 11.00847418 -4 14 C-4.66 14 -5.32 14 -6 14 C-4.16508812 9.25981099 -2.08058541 4.63586749 0 0 Z " fill="#79CD92" transform="translate(299,264)"/>
<path d="M0 0 C0.66 0 1.32 0 2 0 C2 0.66 2 1.32 2 2 C4.31 2 6.62 2 9 2 C9 2.99 9 3.98 9 5 C5.625 5.125 5.625 5.125 2 5 C1.34 4.34 0.68 3.68 0 3 C0 2.01 0 1.02 0 0 Z " fill="#3F3F3F" transform="translate(229,268)"/>
<path d="M0 0 C2.5654594 2.5654594 2.54046087 4.47686668 3 8 C2.67 7.34 2.34 6.68 2 6 C1.071875 6.309375 1.071875 6.309375 0.125 6.625 C-0.57625 6.74875 -1.2775 6.8725 -2 7 C-2.66 6.34 -3.32 5.68 -4 5 C-3 2 -3 2 0 0 Z M-1 3 C-1 3.66 -1 4.32 -1 5 C-0.34 4.67 0.32 4.34 1 4 C0.34 3.67 -0.32 3.34 -1 3 Z " fill="#868686" transform="translate(249,280)"/>
<path d="M0 0 C1.0625 1.8125 1.0625 1.8125 2 4 C1.67 4.99 1.34 5.98 1 7 C0.34 7 -0.32 7 -1 7 C-0.67 11.29 -0.34 15.58 0 20 C-2 18 -2 18 -2.265625 15.390625 C-2.21383648 4.98113208 -2.21383648 4.98113208 0 0 Z " fill="#909090" transform="translate(214,260)"/>
<path d="M0 0 C1.9375 0.8125 1.9375 0.8125 4 2 C5.00496852 5.01490557 5.10335303 7.04181692 5.0625 10.1875 C5.05347656 11.08855469 5.04445313 11.98960937 5.03515625 12.91796875 C5.02355469 13.60503906 5.01195312 14.29210937 5 15 C4.67 15 4.34 15 4 15 C3.34 11.04 2.68 7.08 2 3 C1.34 3 0.68 3 0 3 C0 2.01 0 1.02 0 0 Z " fill="#424242" transform="translate(263,232)"/>
<path d="M0 0 C0.99 0.33 1.98 0.66 3 1 C3 1.66 3 2.32 3 3 C4.65 3 6.3 3 8 3 C8.33 4.65 8.66 6.3 9 8 C5.36688418 6.78896139 2.72226766 5.72226766 0 3 C0 2.01 0 1.02 0 0 Z " fill="#202020" transform="translate(217,282)"/>
<path d="M0 0 C0.33 0.66 0.66 1.32 1 2 C0.01 2 -0.98 2 -2 2 C-1.67 4.31 -1.34 6.62 -1 9 C-2.32 9.33 -3.64 9.66 -5 10 C-4.125 3.25 -4.125 3.25 -3 1 C-2.01 0.67 -1.02 0.34 0 0 Z " fill="#262626" transform="translate(247,246)"/>
<path d="M0 0 C0.66 0.33 1.32 0.66 2 1 C0 5 -2 9 -4 13 C-3.91306859 11.20741442 -3.80489496 9.41584856 -3.6875 7.625 C-3.60048828 6.12839844 -3.60048828 6.12839844 -3.51171875 4.6015625 C-3.34285156 3.74304688 -3.17398437 2.88453125 -3 2 C-2.01 1.34 -1.02 0.68 0 0 Z " fill="#7EC994" transform="translate(304,269)"/>
<path d="M0 0 C2.31 0 4.62 0 7 0 C7 0.66 7 1.32 7 2 C2.84732824 5.11450382 2.84732824 5.11450382 -0.3125 4.6875 C-0.869375 4.460625 -1.42625 4.23375 -2 4 C-1.34 3.67 -0.68 3.34 0 3 C0 2.01 0 1.02 0 0 Z " fill="#3D3D3D" transform="translate(244,286)"/>
<path d="M0 0 C1.4606285 2.64738916 2 3.89448334 2 7 C-0.4375 6.25 -0.4375 6.25 -3 5 C-3.8125 2.875 -3.8125 2.875 -4 1 C-2 0 -2 0 0 0 Z " fill="#41C463" transform="translate(292,284)"/>
<path d="M0 0 C0.66 0.66 1.32 1.32 2 2 C0.35 5.3 -1.3 8.6 -3 12 C-3.33 12 -3.66 12 -4 12 C-4 10.02 -4 8.04 -4 6 C-3.34 6 -2.68 6 -2 6 C-1.855625 5.195625 -1.71125 4.39125 -1.5625 3.5625 C-1 1 -1 1 0 0 Z " fill="#6DC688" transform="translate(312,251)"/>
<path d="M0 0 C0.33 1.32 0.66 2.64 1 4 C0.34 4 -0.32 4 -1 4 C-1 5.32 -1 6.64 -1 8 C-1.99 7.67 -2.98 7.34 -4 7 C-4 5.35 -4 3.7 -4 2 C-2.68 1.34 -1.36 0.68 0 0 Z " fill="#44C267" transform="translate(309,253)"/>
<path d="M0 0 C0.91058531 3.07322544 1.08886184 5.80097361 1 9 C-3.875 7.25 -3.875 7.25 -5 5 C-4.34 5 -3.68 5 -3 5 C-3 4.34 -3 3.68 -3 3 C-2.34 3 -1.68 3 -1 3 C-0.67 2.01 -0.34 1.02 0 0 Z " fill="#494949" transform="translate(230,237)"/>
<path d="M0 0 C2.875 -0.125 2.875 -0.125 6 0 C6.66 0.66 7.32 1.32 8 2 C7.01 2.33 6.02 2.66 5 3 C4.67 3.99 4.34 4.98 4 6 C3.01 5.67 2.02 5.34 1 5 C1.33 4.34 1.66 3.68 2 3 C2.66 3 3.32 3 4 3 C4 2.34 4 1.68 4 1 C2.35 1.33 0.7 1.66 -1 2 C-0.67 1.34 -0.34 0.68 0 0 Z " fill="#767676" transform="translate(246,227)"/>
<path d="M0 0 C1.9375 0.8125 1.9375 0.8125 4 2 C4.33 2.99 4.66 3.98 5 5 C5.66 5 6.32 5 7 5 C6.67 5.66 6.34 6.32 6 7 C4.02 6.01 2.04 5.02 0 4 C0 2.68 0 1.36 0 0 Z " fill="#454545" transform="translate(178,222)"/>
<path d="M0 0 C0.99 0.33 1.98 0.66 3 1 C1.75023244 4.65316671 1.32901247 5.78065836 -2 8 C-2.33 6.68 -2.66 5.36 -3 4 C-2.01 3.67 -1.02 3.34 0 3 C0 2.01 0 1.02 0 0 Z " fill="#54BE75" transform="translate(297,282)"/>
<path d="M0 0 C1.65 0.99 3.3 1.98 5 3 C4.01 3.99 3.02 4.98 2 6 C-0.13093906 4.93453047 -1.36587557 3.70840281 -3 2 C-2.01 1.34 -1.02 0.68 0 0 Z " fill="#9B9B9B" transform="translate(220,279)"/>
<path d="M0 0 C0 3 0 3 -1.6875 4.75 C-4 6 -4 6 -6.75 5.6875 C-7.4925 5.460625 -8.235 5.23375 -9 5 C-8.01 4.01 -7.02 3.02 -6 2 C-5.01 2.33 -4.02 2.66 -3 3 C-2.01 2.01 -1.02 1.02 0 0 Z " fill="#979797" transform="translate(251,274)"/>
<path d="M0 0 C0.66 0.33 1.32 0.66 2 1 C2 2.32 2 3.64 2 5 C1.34 5 0.68 5 0 5 C-0.33 6.32 -0.66 7.64 -1 9 C-3 6 -3 6 -3 4 C-2.34 4 -1.68 4 -1 4 C-0.67 2.68 -0.34 1.36 0 0 Z " fill="#797979" transform="translate(262,257)"/>
<path d="M0 0 C-0.66 1.32 -1.32 2.64 -2 4 C-1.34 4.33 -0.68 4.66 0 5 C-0.33 5.99 -0.66 6.98 -1 8 C-1.66 8 -2.32 8 -3 8 C-3.33 5.69 -3.66 3.38 -4 1 C-2 0 -2 0 0 0 Z " fill="#989797" transform="translate(275,242)"/>
<path d="M0 0 C2.475 0.99 2.475 0.99 5 2 C4.01 2.33 3.02 2.66 2 3 C1.67 3.66 1.34 4.32 1 5 C0.67 4.67 0.34 4.34 0 4 C-1.34747084 3.76924918 -2.70377565 3.58846937 -4.0625 3.4375 C-5.361875 3.293125 -6.66125 3.14875 -8 3 C-8 2.67 -8 2.34 -8 2 C-6.865625 1.855625 -5.73125 1.71125 -4.5625 1.5625 C-1.19222799 1.38828522 -1.19222799 1.38828522 0 0 Z " fill="#B0B0B0" transform="translate(261,229)"/>
<path d="M0 0 C0.33 1.32 0.66 2.64 1 4 C-2.375 4.1875 -2.375 4.1875 -6 4 C-6.66 3.01 -7.32 2.02 -8 1 C-6.865625 1.020625 -5.73125 1.04125 -4.5625 1.0625 C-1.18424326 1.41577477 -1.18424326 1.41577477 0 0 Z " fill="#87C89C" transform="translate(296,289)"/>
<path d="M0 0 C0.33 0.66 0.66 1.32 1 2 C2.32 1.34 3.64 0.68 5 0 C5 1.65 5 3.3 5 5 C4.01 5 3.02 5 2 5 C2 4.34 2 3.68 2 3 C0.68 3 -0.64 3 -2 3 C-2 2.34 -2 1.68 -2 1 C-1.34 0.67 -0.68 0.34 0 0 Z " fill="#555755" transform="translate(270,255)"/>
<path d="M0 0 C0.33 0.66 0.66 1.32 1 2 C0.67 2.99 0.34 3.98 0 5 C-2.97 4.505 -2.97 4.505 -6 4 C-6.33 4.66 -6.66 5.32 -7 6 C-7.66 5.34 -8.32 4.68 -9 4 C-6.03 2.68 -3.06 1.36 0 0 Z " fill="#484848" transform="translate(167,254)"/>
<path d="M0 0 C0.66 0.33 1.32 0.66 2 1 C0.33333333 4.33333333 -1.33333333 7.66666667 -3 11 C-3.75 9.4375 -3.75 9.4375 -4 7 C-2.86915563 4.49713591 -1.47860484 2.32992278 0 0 Z " fill="#525F53" transform="translate(320,242)"/>
<path d="M0 0 C0.99 0.33 1.98 0.66 3 1 C3 3.19636905 2.67375452 4.911361 2 7 C1.01 7.495 1.01 7.495 0 8 C-0.98120464 4.94736336 -0.98120464 3.05263664 0 0 Z " fill="#2D2D2D" transform="translate(231,237)"/>
<path d="M0 0 C0.33 1.32 0.66 2.64 1 4 C0.34 4 -0.32 4 -1 4 C-1 4.66 -1 5.32 -1 6 C-1.66 6 -2.32 6 -3 6 C-3.33 6.66 -3.66 7.32 -4 8 C-4.33 6.35 -4.66 4.7 -5 3 C-3.35 2.67 -1.7 2.34 0 2 C0 1.34 0 0.68 0 0 Z " fill="#444444" transform="translate(238,235)"/>
<path d="M0 0 C0.33 1.32 0.66 2.64 1 4 C0.34 4 -0.32 4 -1 4 C-1.33 5.65 -1.66 7.3 -2 9 C-2.99 9 -3.98 9 -5 9 C-3.35 6.03 -1.7 3.06 0 0 Z " fill="#91D4A3" transform="translate(317,230)"/>
<path d="M0 0 C0 0.66 0 1.32 0 2 C-0.99 2 -1.98 2 -3 2 C-2.67 2.99 -2.34 3.98 -2 5 C-3.65 4.67 -5.3 4.34 -7 4 C-6.67 3.01 -6.34 2.02 -6 1 C-3 0 -3 0 0 0 Z " fill="#1C1C1C" transform="translate(250,228)"/>
<path d="M0 0 C0.33 0 0.66 0 1 0 C1.76173392 4.3164922 2.16063604 7.74433453 1 12 C-1.83022097 8.00439392 -0.76210446 4.57262677 0 0 Z " fill="#6FCB8B" transform="translate(281,266)"/>
<path d="M0 0 C0.66 0.66 1.32 1.32 2 2 C1.625 4.125 1.625 4.125 1 6 C-0.32 5.34 -1.64 4.68 -3 4 C-2.67 3.01 -2.34 2.02 -2 1 C-1.34 0.67 -0.68 0.34 0 0 Z " fill="#6B6B6B" transform="translate(348,265)"/>
<path d="M0 0 C0.66 0.33 1.32 0.66 2 1 C1.01 1.33 0.02 1.66 -1 2 C-1 2.66 -1 3.32 -1 4 C0.32 4.33 1.64 4.66 3 5 C3 5.33 3 5.66 3 6 C1.02 6 -0.96 6 -3 6 C-2.625 3.5625 -2.625 3.5625 -2 1 C-1.34 0.67 -0.68 0.34 0 0 Z " fill="#49C06C" transform="translate(325,222)"/>
<path d="M0 0 C2.31 0.66 4.62 1.32 7 2 C6.34 2.66 5.68 3.32 5 4 C2.27130593 3.96712417 -0.2966618 3.43602229 -3 3 C-2.01 2.67 -1.02 2.34 0 2 C0 1.34 0 0.68 0 0 Z " fill="#171717" transform="translate(231,289)"/>
<path d="M0 0 C0.66 0.33 1.32 0.66 2 1 C2.94934202 3.92713788 3.23176473 5.42831368 2.0625 8.3125 C1.5365625 9.1478125 1.5365625 9.1478125 1 10 C0.34 10 -0.32 10 -1 10 C-0.67 6.7 -0.34 3.4 0 0 Z " fill="#5D6C5E" transform="translate(315,248)"/>
<path d="M0 0 C1.32 0.33 2.64 0.66 4 1 C4 1.99 4 2.98 4 4 C2.02 4.99 2.02 4.99 0 6 C0 4.02 0 2.04 0 0 Z " fill="#383838" transform="translate(269,233)"/>
<path d="M0 0 C0.99 0 1.98 0 3 0 C2.34 1.98 1.68 3.96 1 6 C0.34 6 -0.32 6 -1 6 C-1.33 5.01 -1.66 4.02 -2 3 C-1.34 2.01 -0.68 1.02 0 0 Z " fill="#63C27F" transform="translate(305,263)"/>
</svg>
